<?xml version="1.0" standalone="no"?>
<!DOCTYPE svg PUBLIC "-//W3C//DTD SVG 20010904//EN"
 "http://www.w3.org/TR/2001/REC-SVG-20010904/DTD/svg10.dtd">
<svg version="1.0" xmlns="http://www.w3.org/2000/svg"
 width="500.000000pt" height="500.000000pt" viewBox="0 0 500.000000 500.000000"
 preserveAspectRatio="xMidYMid meet">
<metadata>
Created by potrace 1.14, written by Peter Selinger 2001-2017
</metadata>
<g transform="translate(0.000000,500.000000) scale(0.100000,-0.100000)"
fill="#000000" stroke="none">
<path d="M1420 2356 l0 -1716 205 0 205 0 0 705 0 706 588 -3 c585 -3 587 -3
629 -25 53 -29 79 -65 98 -139 13 -49 15 -153 15 -651 l0 -593 203 2 202 3 3
630 c2 421 -1 651 -8 694 -24 142 -107 232 -255 276 -34 10 -40 17 -43 41 -2
26 5 33 74 74 155 91 270 249 325 445 20 69 23 104 23 260 1 252 -34 398 -131
559 -44 71 -148 184 -221 238 -118 88 -302 161 -473 189 -50 8 -297 13 -756
16 l-683 5 0 -1716z m1435 1301 c209 -60 343 -188 401 -382 25 -83 26 -342 1
-433 -53 -196 -183 -324 -383 -376 -111 -29 -239 -36 -641 -36 l-403 0 0 626
0 625 483 -3 c419 -3 490 -6 542 -21z"/>
</g>
</svg>
